<?xml version="1.0" encoding="UTF-8" standalone="no"?>
<svg width="146px" height="36px" viewBox="0 0 146 36" version="1.1" xmlns="http://www.w3.org/2000/svg" xmlns:xlink="http://www.w3.org/1999/xlink">
    <!-- Generator: Sketch 39.1 (31720) - http://www.bohemiancoding.com/sketch -->
    <title>Beta + logo-en</title>
    <desc>Created with Sketch.</desc>
    <defs>
        <linearGradient x1="0.000429261409%" y1="50%" x2="100.00004%" y2="50%" id="linearGradient-1">
            <stop stop-color="#FCD900" offset="0%"></stop>
            <stop stop-color="#F5AE1B" offset="100%"></stop>
        </linearGradient>
    </defs>
    <g id="prematch-navigation" stroke="none" stroke-width="1" fill="none" fill-rule="evenodd">
        <g id="main-3" transform="translate(-19.000000, -12.000000)">
            <g id="Loged-in">
                <g id="logo-en" transform="translate(19.000000, 12.000000)">
                    <g id="Beta-+-logo-en">
                        <g id="logo">
                            <path d="M10.9902,6.4238 C10.7612,7.6948 9.6702,7.8648 8.6632,7.8648 L8.0962,7.8648 L8.7222,5.1228 L9.2672,5.1228 C10.2102,5.1238 11.2012,5.2508 10.9902,6.4238 M10.3472,0.8318 L4.7232,0.8318 C4.2802,0.8318 3.9102,1.1448 3.8232,1.5618 L0.5352,15.8538 L0.5052,15.9828 C0.5032,16.0018 0.5002,16.0228 0.5002,16.0438 C0.5002,16.3458 0.7462,16.5918 1.0492,16.5918 L5.7162,16.5918 C5.9262,16.5768 6.1062,16.4458 6.1842,16.2618 L6.2242,16.0848 L7.1852,11.8468 L9.8002,11.8468 C13.0092,11.8468 15.3372,9.8398 15.8612,6.6208 C16.4692,2.7118 14.0372,0.8318 10.3472,0.8318" id="Fill-1" fill="#000000"></path>
                            <path d="M20.3501,10.877 L22.1731,6.608 L22.2731,6.604 C22.3991,8.391 22.5011,10.877 22.5011,10.877 L20.3501,10.877 Z M28.3291,15.847 L26.2981,1.379 L26.2781,1.23 C26.2171,1.006 26.0201,0.84 25.7811,0.823 L20.7271,0.823 C20.5031,0.87 20.3111,1 20.1801,1.178 L20.0541,1.425 L12.7001,15.657 L12.5531,15.94 C12.5481,15.972 12.5441,16.004 12.5441,16.039 C12.5441,16.339 12.7881,16.583 13.0881,16.587 L13.0991,16.587 L17.5931,16.585 L17.6631,16.585 C17.8101,16.574 17.9411,16.506 18.0361,16.403 L18.1741,16.076 L18.7901,14.62 L22.7021,14.62 L22.7671,15.853 L22.7891,16.277 C22.8731,16.449 23.0441,16.57 23.2451,16.583 L27.8531,16.583 C28.1241,16.564 28.3411,16.35 28.3611,16.078 L28.3291,15.847 Z" id="Fill-3" fill="#000000"></path>
                            <path d="M40.1768,6.4038 C39.9598,7.5688 38.8038,7.8358 37.6818,7.7828 L37.2848,7.7828 L37.9218,5.0318 L38.4058,5.0318 C39.6068,5.0328 40.4028,5.1978 40.1768,6.4038 M39.3388,0.8318 L33.8528,0.8318 C33.4448,0.8498 33.1098,1.1268 33.0078,1.5048 L32.9878,1.5918 L29.7168,15.8108 L29.6688,16.0248 C29.6688,16.0308 29.6658,16.0338 29.6658,16.0398 C29.6658,16.3348 29.8998,16.5748 30.1928,16.5918 L34.8458,16.5918 C35.0898,16.5918 35.2928,16.4338 35.3698,16.2178 L35.3958,16.1038 L36.4448,11.5618 C36.4448,11.5618 36.4448,11.5558 36.5488,11.5618 C36.7138,11.5698 37.4638,14.8258 37.7488,16.0928 C37.7618,16.1508 37.7738,16.2068 37.7858,16.2568 C37.8528,16.4238 38.0008,16.5498 38.1818,16.5898 L42.7698,16.5898 C43.0768,16.5898 43.3258,16.3408 43.3258,16.0338 C43.3258,16.0128 43.3228,15.9938 43.3198,15.9718 C43.3048,15.9158 43.2888,15.8598 43.2708,15.7968 C42.8208,14.1978 41.7728,10.7018 41.1088,10.3798 C43.3528,9.6698 44.9318,8.7548 45.3088,6.3738 C45.9348,2.4018 42.9168,0.7358 39.3388,0.8318" id="Fill-5" fill="#000000"></path>
                            <path d="M53.231,0.8252 L48.826,0.8252 C48.408,0.8252 48.06,1.1052 47.949,1.4862 L47.922,1.6012 L44.65,15.8272 L44.609,16.0002 C44.609,16.0122 44.606,16.0272 44.606,16.0412 C44.606,16.3312 44.832,16.5672 45.118,16.5852 L49.647,16.5852 C49.951,16.5422 50.206,16.3482 50.337,16.0822 L50.432,15.6742 L53.684,1.5222 L53.699,1.4612 C53.703,1.4332 53.708,1.4022 53.708,1.3732 C53.708,1.0932 53.501,0.8642 53.231,0.8252" id="Fill-7" fill="#000000"></path>
                            <path d="M57.39,0.822 C57.238,0.822 57.098,0.858 56.973,0.922 L56.973,0.922 L56.973,0.932 L56.955,0.932 C56.734,1.052 56.568,1.26 56.503,1.508 L56.503,1.508 L56.486,1.583 L53.245,15.802 L53.196,16.015 L53.195,16.025 L53.195,16.029 C53.195,16.12 53.218,16.207 53.256,16.283 L53.256,16.283 L53.259,16.283 L53.259,16.286 C53.352,16.461 53.537,16.583 53.752,16.584 L53.752,16.584 L53.754,16.584 L79.68,16.597 L79.744,16.597 C80.125,16.584 80.445,16.338 80.572,16 L80.572,16 L80.621,15.787 L83.914,1.496 L83.916,1.487 C83.923,1.454 83.927,1.424 83.927,1.392 L83.927,1.392 L83.927,1.378 C83.927,1.07 83.68,0.822 83.371,0.822 L83.371,0.822 L57.39,0.822 Z" id="Clip-11" fill="url(#linearGradient-1)"></path>
                            <path d="M38.097,19.195 C37.93,19.195 37.774,19.239 37.641,19.317 L37.641,19.317 L37.641,19.331 L37.617,19.331 C37.418,19.454 37.27,19.651 37.211,19.878 L37.211,19.878 L37.193,19.951 L33.952,34.17 L33.904,34.383 C33.903,34.391 33.902,34.394 33.902,34.398 L33.902,34.398 C33.902,34.707 34.151,34.956 34.458,34.956 L34.458,34.956 L34.46,34.956 L60.384,34.975 L60.451,34.975 C60.794,34.96 61.085,34.761 61.233,34.476 L61.233,34.476 L61.233,34.465 L61.237,34.465 C61.252,34.438 61.266,34.404 61.277,34.375 L61.277,34.375 L61.326,34.162 L64.621,19.872 L64.622,19.859 C64.628,19.825 64.632,19.793 64.634,19.76 L64.634,19.76 L64.634,19.749 C64.634,19.718 64.631,19.686 64.626,19.657 L64.626,19.657 L64.618,19.657 L64.618,19.618 C64.559,19.375 64.34,19.195 64.077,19.195 L64.077,19.195 L38.097,19.195 Z" id="Clip-14" fill="url(#linearGradient-1)"></path>
                            <path d="M85.3701,19.2012 L79.2231,19.2012 C78.9171,19.2012 78.6461,19.3512 78.4781,19.5822 C78.4451,19.6522 78.4041,19.7302 78.3591,19.8162 C77.4281,21.6252 74.7601,26.8182 74.4651,27.4722 L74.3461,27.4722 L73.9371,19.8242 L73.9241,19.6142 C73.8711,19.3942 73.6831,19.2282 73.4531,19.2012 L68.3121,19.2012 C67.9201,19.2012 67.5901,19.4452 67.4581,19.7892 L67.4021,20.0212 L64.1141,34.2362 L64.0931,34.3292 C64.0901,34.3532 64.0871,34.3802 64.0871,34.4072 C64.0871,34.7132 64.3361,34.9632 64.6431,34.9632 L68.4291,34.9632 C68.6861,34.9632 68.9011,34.7832 68.9651,34.5482 L68.9771,34.5002 L70.8501,26.3162 C70.7991,26.8682 71.1131,32.4642 71.2221,34.3462 C71.2261,34.4132 71.2321,34.4762 71.2341,34.5342 C71.2911,34.7752 71.5111,34.9602 71.7731,34.9602 L74.4331,34.9602 C74.6221,34.9602 74.7871,34.8662 74.8851,34.7282 C74.9061,34.6872 74.9301,34.6422 74.9551,34.5912 C75.7791,33.0022 79.0001,26.7792 79.1631,26.3222 L79.2991,26.3102 L77.4781,34.2532 L77.4661,34.3202 C77.4611,34.3472 77.4571,34.3742 77.4571,34.4042 C77.4571,34.6972 77.6831,34.9332 77.9731,34.9572 L81.9911,34.9572 C82.2071,34.9392 82.3871,34.8052 82.4651,34.6112 L82.5011,34.4562 L85.8321,19.9132 L85.8531,19.8182 C85.8571,19.7942 85.8611,19.7692 85.8611,19.7432 C85.8571,19.4672 85.6461,19.2342 85.3701,19.2012" id="Fill-16" fill="#000000"></path>
                            <path d="M128.3535,23.498 C128.2995,21.885 127.5625,18.719 122.4615,18.507 C116.7655,18.271 113.2715,22.136 112.7125,27.402 C112.2345,31.924 114.5455,35.296 119.9725,35.175 C125.0525,35.064 126.6115,31.859 127.0835,30.064 C127.0955,30.019 127.1055,29.977 127.1175,29.934 C127.1245,29.886 127.1305,29.838 127.1305,29.789 C127.1305,29.293 126.7365,28.893 126.2415,28.877 L126.1835,28.877 L122.0215,28.871 L121.9995,28.871 C121.8125,28.873 121.6505,28.968 121.5545,29.107 C121.5415,29.128 121.5335,29.15 121.5195,29.167 C121.1115,29.818 120.3615,30.154 119.8185,30.052 C118.5995,29.82 118.5425,28.468 118.6745,27.377 C118.7915,26.423 119.9455,23.652 121.4685,23.654 C122.0855,23.654 122.4105,23.867 122.5805,24.135 C122.5995,24.16 122.6135,24.189 122.6265,24.214 C122.7155,24.339 122.8555,24.425 123.0195,24.443 L127.4435,24.443 C127.9415,24.439 128.3425,24.044 128.3555,23.547 C128.3555,23.533 128.3535,23.516 128.3535,23.498" id="Fill-18" fill="#000000"></path>
                            <path d="M113.082,19.1914 L113.077,19.1914 L101.34,19.1994 L101.211,19.1994 C100.799,19.2284 100.463,19.5214 100.379,19.9154 L100.376,19.9294 L99.564,23.4954 L99.544,23.5744 C99.541,23.6014 99.536,23.6264 99.536,23.6544 C99.536,23.9454 99.764,24.1814 100.047,24.2044 L100.143,24.2044 L103.255,24.1994 L100.941,34.1914 L100.894,34.3924 C100.894,34.4024 100.893,34.4104 100.893,34.4164 C100.893,34.6834 101.08,34.9024 101.33,34.9594 L105.788,34.9594 C106.18,34.9594 106.514,34.7124 106.645,34.3664 L106.695,34.1384 L108.998,24.1954 L111.895,24.2014 L111.911,24.2014 C112.33,24.1994 112.68,23.9144 112.785,23.5294 L112.807,23.4314 L113.609,19.8984 L113.627,19.8274 C113.631,19.7994 113.637,19.7694 113.637,19.7454 C113.637,19.4414 113.389,19.1934 113.082,19.1914" id="Fill-20" fill="#000000"></path>
                            <path d="M91.6016,29.2549 L93.4266,24.9839 L93.5276,24.9809 C93.6506,26.7699 93.7566,29.2519 93.7566,29.2519 L91.6016,29.2549 Z M99.5876,34.2679 L97.5526,19.7699 L97.5296,19.5889 C97.4676,19.3829 97.2886,19.2289 97.0666,19.2009 L92.1036,19.2009 C91.8186,19.2229 91.5686,19.3699 91.4156,19.5929 L91.3186,19.7829 L83.8926,34.1519 L83.8686,34.1999 C83.8416,34.2659 83.8266,34.3359 83.8266,34.4099 C83.8266,34.7159 84.0706,34.9619 84.3766,34.9639 L84.3906,34.9639 L88.8086,34.9629 L88.8736,34.9629 C89.0866,34.9489 89.2676,34.8179 89.3496,34.6349 L89.3576,34.6159 L90.0436,32.9989 L93.9556,33.0009 L94.0296,34.3789 L94.0386,34.5089 C94.0816,34.7559 94.2916,34.9449 94.5496,34.9629 L99.0546,34.9629 C99.3636,34.9629 99.6116,34.7149 99.6136,34.4079 L99.5876,34.2679 Z" id="Fill-22" fill="#000000"></path>
                            <path d="M145.0137,19.2383 C144.9927,19.2343 144.8987,19.2343 144.8727,19.2383 L140.6917,19.2383 C140.6697,19.2343 140.5767,19.2343 140.5507,19.2383 C140.1447,19.2673 139.8147,19.5583 139.7287,19.9473 L139.7207,19.9703 L138.6617,24.5323 L135.1427,24.5323 L136.1327,20.0103 C136.1667,19.9393 136.1897,19.8593 136.1897,19.7733 C136.1897,19.7693 136.1877,19.7653 136.1877,19.7653 C136.1837,19.4923 135.9787,19.2653 135.7117,19.2263 C135.6877,19.2223 135.6587,19.2203 135.6307,19.2203 C135.6037,19.2203 135.5767,19.2223 135.5507,19.2263 L131.3237,19.2263 C130.9437,19.2263 130.6177,19.4563 130.4787,19.7873 C130.4397,19.8753 130.4167,19.9743 130.4127,20.0733 L127.1797,34.1873 L127.1277,34.4103 C127.1277,34.4153 127.1257,34.4163 127.1257,34.4183 C127.1257,34.7263 127.3757,34.9743 127.6857,34.9743 L132.0217,34.9743 C132.4197,34.9743 132.7577,34.7203 132.8847,34.3673 L132.9317,34.1633 L133.9847,29.5023 L137.5357,29.5063 L136.4457,34.2593 C136.4457,34.2593 136.4187,34.3963 136.4187,34.4213 C136.4187,34.7303 136.6687,34.9783 136.9787,34.9783 L141.2877,34.9783 C141.7107,34.9783 142.0607,34.6933 142.1687,34.3083 L142.1917,34.2063 L145.4747,19.9393 L145.4917,19.8733 C145.4957,19.8473 145.4997,19.8143 145.4997,19.7863 C145.4997,19.5023 145.2867,19.2713 145.0137,19.2383" id="Fill-24" fill="#000000"></path>
                        </g>
                    </g>
                </g>
            </g>
        </g>
    </g>
</svg>